# This file uses centimeters as units for non-parametric coordinates.

mtllib broken_t.mtl
g default
v 8.000000 -1.000000 6.000000
v 22.000000 -1.000000 6.000000
v 8.000000 1.000000 6.000000
v 22.000000 1.000000 6.000000
v 8.000000 1.000000 4.000000
v 22.000000 1.000000 4.000000
v 8.000000 -1.000000 4.000000
v 22.000000 -1.000000 4.000000
v 27.000000 -1.000000 25.000000
v 27.000000 -1.000000 -17.000000
v 27.000000 1.000000 25.000000
v 27.000000 1.000000 -17.000000
v 25.000000 1.000000 25.000000
v 25.000000 1.000000 -17.000000
v 25.000000 -1.000000 25.000000
v 25.000000 -1.000000 -17.000000
v -9.000000 -1.000000 6.000000
v 5.000000 -1.000000 6.000000
v -9.000000 1.000000 6.000000
v 5.000000 1.000000 6.000000
v -9.000000 1.000000 4.000000
v 5.000000 1.000000 4.000000
v -9.000000 -1.000000 4.000000
v 5.000000 -1.000000 4.000000
vt 0.000000 0.000000
vt 1.000000 0.000000
vt 0.000000 1.000000
vt 1.000000 1.000000
vt 0.000000 2.000000
vt 1.000000 2.000000
vt 0.000000 3.000000
vt 1.000000 3.000000
vt 0.000000 4.000000
vt 1.000000 4.000000
vt 2.000000 0.000000
vt 2.000000 1.000000
vt -1.000000 0.000000
vt -1.000000 1.000000
vt 0.000000 0.000000
vt 1.000000 0.000000
vt 1.000000 1.000000
vt 0.000000 1.000000
vt 1.000000 2.000000
vt 0.000000 2.000000
vt 1.000000 3.000000
vt 0.000000 3.000000
vt 1.000000 4.000000
vt 0.000000 4.000000
vt 2.000000 0.000000
vt 2.000000 1.000000
vt -1.000000 0.000000
vt -1.000000 1.000000
vt 0.000000 0.000000
vt 1.000000 0.000000
vt 1.000000 1.000000
vt 0.000000 1.000000
vt 1.000000 2.000000
vt 0.000000 2.000000
vt 1.000000 3.000000
vt 0.000000 3.000000
vt 1.000000 4.000000
vt 0.000000 4.000000
vt 2.000000 0.000000
vt 2.000000 1.000000
vt -1.000000 0.000000
vt -1.000000 1.000000
vn 0.000000 0.000000 1.000000
vn 0.000000 0.000000 1.000000
vn 0.000000 0.000000 1.000000
vn 0.000000 0.000000 1.000000
vn 0.000000 1.000000 0.000000
vn 0.000000 1.000000 0.000000
vn 0.000000 1.000000 0.000000
vn 0.000000 1.000000 0.000000
vn 0.000000 0.000000 -1.000000
vn 0.000000 0.000000 -1.000000
vn 0.000000 0.000000 -1.000000
vn 0.000000 0.000000 -1.000000
vn 0.000000 -1.000000 0.000000
vn 0.000000 -1.000000 0.000000
vn 0.000000 -1.000000 0.000000
vn 0.000000 -1.000000 0.000000
vn 1.000000 0.000000 0.000000
vn 1.000000 0.000000 0.000000
vn 1.000000 0.000000 0.000000
vn 1.000000 0.000000 0.000000
vn -1.000000 0.000000 0.000000
vn -1.000000 0.000000 0.000000
vn -1.000000 0.000000 0.000000
vn -1.000000 0.000000 0.000000
vn 1.000000 0.000000 0.000000
vn 1.000000 0.000000 0.000000
vn 1.000000 0.000000 0.000000
vn 1.000000 0.000000 0.000000
vn 0.000000 1.000000 0.000000
vn 0.000000 1.000000 0.000000
vn 0.000000 1.000000 0.000000
vn 0.000000 1.000000 0.000000
vn -1.000000 0.000000 0.000000
vn -1.000000 0.000000 0.000000
vn -1.000000 0.000000 0.000000
vn -1.000000 0.000000 0.000000
vn 0.000000 -1.000000 0.000000
vn 0.000000 -1.000000 0.000000
vn 0.000000 -1.000000 0.000000
vn 0.000000 -1.000000 0.000000
vn 0.000000 0.000000 -1.000000
vn 0.000000 0.000000 -1.000000
vn 0.000000 0.000000 -1.000000
vn 0.000000 0.000000 -1.000000
vn 0.000000 0.000000 1.000000
vn 0.000000 0.000000 1.000000
vn 0.000000 0.000000 1.000000
vn 0.000000 0.000000 1.000000
vn 0.000000 0.000000 1.000000
vn 0.000000 0.000000 1.000000
vn 0.000000 0.000000 1.000000
vn 0.000000 0.000000 1.000000
vn 0.000000 1.000000 0.000000
vn 0.000000 1.000000 0.000000
vn 0.000000 1.000000 0.000000
vn 0.000000 1.000000 0.000000
vn 0.000000 0.000000 -1.000000
vn 0.000000 0.000000 -1.000000
vn 0.000000 0.000000 -1.000000
vn 0.000000 0.000000 -1.000000
vn 0.000000 -1.000000 0.000000
vn 0.000000 -1.000000 0.000000
vn 0.000000 -1.000000 0.000000
vn 0.000000 -1.000000 0.000000
vn 1.000000 0.000000 0.000000
vn 1.000000 0.000000 0.000000
vn 1.000000 0.000000 0.000000
vn 1.000000 0.000000 0.000000
vn -1.000000 0.000000 0.000000
vn -1.000000 0.000000 0.000000
vn -1.000000 0.000000 0.000000
vn -1.000000 0.000000 0.000000
s 1
g polySurface127
usemtl initialShadingGroup
f 1/1/1 2/2/2 3/3/3
f 2/2/2 4/4/4 3/3/3
s 2
f 3/3/5 4/4/6 5/5/7
f 4/4/6 6/6/8 5/5/7
s 3
f 5/5/9 6/6/10 7/7/11
f 6/6/10 8/8/12 7/7/11
s 4
f 7/7/13 8/8/14 1/9/15
f 8/8/14 2/10/16 1/9/15
s 5
f 2/2/17 8/11/18 4/4/19
f 8/11/18 6/12/20 4/4/19
s 6
f 7/13/21 1/1/22 5/14/23
f 1/1/22 3/3/24 5/14/23
s 7
f 9/15/25 10/16/26 11/18/27
f 10/16/26 12/17/28 11/18/27
s 8
f 11/18/29 12/17/30 13/20/31
f 12/17/30 14/19/32 13/20/31
s 9
f 13/20/33 14/19/34 15/22/35
f 14/19/34 16/21/36 15/22/35
s 10
f 15/22/37 16/21/38 9/24/39
f 16/21/38 10/23/40 9/24/39
s 11
f 10/16/41 16/25/42 12/17/43
f 16/25/42 14/26/44 12/17/43
s 12
f 15/27/45 9/15/46 13/28/47
f 9/15/46 11/18/48 13/28/47
s 13
f 17/29/49 18/30/50 19/32/51
f 18/30/50 20/31/52 19/32/51
s 14
f 19/32/53 20/31/54 21/34/55
f 20/31/54 22/33/56 21/34/55
s 15
f 21/34/57 22/33/58 23/36/59
f 22/33/58 24/35/60 23/36/59
s 16
f 23/36/61 24/35/62 17/38/63
f 24/35/62 18/37/64 17/38/63
s 17
f 18/30/65 24/39/66 20/31/67
f 24/39/66 22/40/68 20/31/67
s 18
f 23/41/69 17/29/70 21/42/71
f 17/29/70 19/32/72 21/42/71
