# This file uses centimeters as units for non-parametric coordinates.

mtllib building.mtl
g default
v -27.000000 0.000000 1.500000
v 1.500000 0.000000 1.500000
v -27.000000 3.000000 1.500000
v 1.500000 3.000000 1.500000
v -27.000000 3.000000 -4.000000
v 3.000000 3.000000 -1.491700
v -27.000000 0.000000 -4.000000
v 3.000000 0.000000 -1.491700
v -27.000000 0.000000 39.000000
v 1.500000 0.000000 39.000000
v 1.500000 3.000000 39.000000
v -27.000000 3.000000 39.000000
v 5.000000 0.000000 -2.000000
v 6.000000 0.000000 1.500000
v 5.000000 3.000000 -2.000000
v 6.000000 3.000000 1.500000
v 9.000000 0.000000 -1.500000
v 9.000000 0.000000 1.500000
v 9.000000 3.000000 -1.500000
v 9.000000 3.000000 1.500000
v 6.000000 3.000000 -21.000000
v 6.000000 0.000000 -21.000000
v 9.000000 3.000000 -21.000000
v 9.000000 0.000000 -21.000000
v -27.000000 17.012402 1.500000
v 1.499999 17.012402 1.500000
v -27.000000 17.012402 39.000000
v 1.499998 17.012402 39.000000
v -24.999999 3.000000 -1.500000
v -24.999999 3.000000 1.500000
v -24.999999 3.000000 -1.500000
v -24.999999 0.000000 -1.500000
v -24.999999 0.000000 1.499134
v 5.999999 3.000000 -4.000000
v 9.000000 3.000000 -4.000000
v 9.000000 0.000000 -4.000000
v 5.999999 0.000000 -4.000000
vt 0.000000 0.000000
vt 1.000000 0.000000
vt 0.000000 1.000000
vt 1.000000 1.000000
vt 0.000000 2.000000
vt 1.000000 2.000000
vt 0.000000 3.000000
vt 1.000000 3.000000
vt 0.000000 4.000000
vt 1.000000 4.000000
vt 2.000000 0.000000
vt 2.000000 1.000000
vt -1.000000 0.000000
vt -1.000000 1.000000
vt 0.000000 0.000000
vt 1.000000 0.000000
vt 1.000000 1.000000
vt 0.000000 1.000000
vt 1.000000 0.000000
vt 2.000000 0.000000
vt 2.000000 1.000000
vt 1.000000 1.000000
vt 1.000000 0.000000
vt 2.000000 0.000000
vt 2.000000 1.000000
vt 1.000000 1.000000
vt 2.000000 0.000000
vt 2.000000 1.000000
vt 2.000000 1.000000
vt 2.000000 0.000000
vt 1.000000 1.000000
vt 0.000000 1.000000
vt 0.000000 1.000000
vt 1.000000 1.000000
vt 0.500000 2.000000
vt 0.500000 1.000000
vt 0.479067 2.000000
vt 0.106115 3.000000
vt 0.165519 0.000000
vt 0.165519 4.000000
vt 2.000000 1.000000
vt 2.000000 1.000000
vt 2.000000 0.000000
vt 2.000000 0.000000
vn 0.000000 0.000000 1.000000
vn 0.000000 0.000000 1.000000
vn -0.000000 0.000000 1.000000
vn -0.000000 0.000000 1.000000
vn 0.000000 1.000000 0.000000
vn 0.000000 1.000000 0.000000
vn 0.000000 1.000000 0.000000
vn 0.000000 1.000000 0.000000
vn 0.780869 -0.000000 -0.624695
vn 0.780869 0.000000 -0.624695
vn 0.780869 0.000000 -0.624695
vn 0.780869 0.000000 -0.624695
vn 0.000000 -1.000000 0.000000
vn 0.000000 -1.000000 0.000000
vn 0.000000 -1.000000 0.000000
vn 0.000000 -1.000000 0.000000
vn 1.000000 0.000000 0.000000
vn 1.000000 -0.000000 0.000000
vn 1.000000 0.000000 0.000000
vn 1.000000 0.000000 0.000000
vn -1.000000 0.000001 0.000000
vn -1.000000 0.000000 0.000000
vn -1.000000 0.000000 0.000000
vn -1.000000 -0.000000 0.000000
vn 0.000000 -1.000000 0.000000
vn 0.000000 -1.000000 0.000000
vn 0.000000 -1.000000 0.000000
vn 1.000000 0.000000 0.000000
vn 1.000000 0.000000 0.000000
vn 1.000000 0.000000 0.000000
vn 1.000000 0.000000 -0.000000
vn 0.000000 1.000000 -0.000000
vn 0.000000 1.000000 -0.000000
vn 0.000000 1.000000 -0.000000
vn 0.000000 1.000000 -0.000000
vn -1.000000 -0.000000 0.000000
vn -1.000000 0.000000 0.000000
vn 0.000000 -1.000000 0.000000
vn 0.000000 -1.000000 0.000000
vn 0.000000 -1.000000 0.000000
vn -0.123972 -0.000000 -0.992286
vn -0.120215 0.244318 -0.962215
vn -0.246319 -0.000000 -0.969189
vn -0.246319 -0.000000 -0.969189
vn 0.000000 1.000000 0.000000
vn 0.000000 1.000000 0.000000
vn 0.000000 0.000000 1.000000
vn 0.000000 0.000000 1.000000
vn 0.000000 0.000000 1.000000
vn 0.000000 0.000000 1.000000
vn 0.000000 -1.000000 0.000000
vn 0.000000 -1.000000 0.000000
vn 0.000000 0.000000 -1.000000
vn 0.000000 0.000000 -1.000000
vn 0.000000 0.000000 -1.000000
vn 0.000000 0.000000 -1.000000
vn 0.000000 1.000000 0.000000
vn 0.000000 1.000000 0.000000
vn 0.000000 0.000000 1.000000
vn 0.000000 0.000000 1.000000
vn -1.000000 -0.000000 -0.000000
vn -1.000000 -0.000000 -0.000000
vn -1.000000 -0.000000 -0.000000
vn -1.000000 -0.000000 -0.000000
vn 0.000000 1.000000 0.000000
vn 0.000000 1.000000 0.000000
vn 0.000000 1.000000 0.000000
vn 0.000000 1.000000 0.000000
vn 1.000000 -0.000000 0.000000
vn 1.000000 -0.000000 0.000000
vn 1.000000 -0.000000 0.000000
vn 1.000000 0.000000 0.000000
vn 0.000000 -1.000000 0.000000
vn 0.000000 -1.000000 0.000000
vn 0.000000 -1.000000 0.000000
vn 0.000000 -1.000000 0.000000
vn -0.000000 -0.000000 -1.000000
vn 0.000000 0.000000 -1.000000
vn -0.000000 -0.000000 -1.000000
vn 0.000000 0.000000 -1.000000
vn 0.000000 0.000000 -1.000000
vn -1.000000 -0.000000 0.000000
vn -1.000000 -0.000000 0.000000
vn -0.000000 0.000000 1.000000
vn -0.000000 0.000000 1.000000
vn 1.000000 0.000000 0.000000
vn 1.000000 0.000000 0.000000
vn 0.000000 1.000000 0.000000
vn 0.000000 1.000000 0.000000
vn 0.000000 1.000000 0.000000
vn 0.000000 1.000000 0.000000
vn 0.000000 1.000000 0.000000
vn 0.000000 1.000000 0.000000
vn 0.000210 0.707107 -0.707107
vn 0.000296 0.000000 -1.000000
vn 0.000000 -1.000000 0.000000
vn 0.000000 1.000000 0.000000
vn 0.000000 1.000000 0.000000
vn 1.000000 -0.000000 0.000000
vn 1.000000 -0.000001 0.000000
vn 0.000000 -1.000000 0.000000
vn 0.000000 -1.000000 0.000000
vn -0.894427 -0.000000 -0.447213
vn -0.894427 -0.000000 -0.447213
vn -0.894427 -0.000000 -0.447213
vn -0.894427 -0.000000 -0.447213
s 1
g pCube1 group1
usemtl initialShadingGroup
f 9/15/1 10/16/2 12/18/3
f 10/16/2 11/17/4 12/18/3
s 2
f 6/6/5 29/35/6 4/4/7
f 30/36/8 4/4/7 29/35/6
s 3
f 5/5/9 31/37/10 7/7/11
f 31/37/10 32/38/12 7/7/11
s 4
f 7/7/13 32/38/14 1/9/15
f 32/38/14 33/40/16 1/9/15
s 5
f 18/23/17 17/24/18 20/26/19
f 17/24/18 19/25/20 20/26/19
s 6
f 7/13/21 1/1/22 5/14/23
f 1/1/22 3/3/24 5/14/23
s 4
f 10/16/25 9/15/26 2/2/27
f 1/1/15 33/39/16 9/15/26
f 33/39/16 2/2/27 9/15/26
s 7
f 2/2/28 4/4/29 10/16/30
f 4/4/29 11/17/31 10/16/30
s 8
f 26/31/32 25/32/33 28/34/34
f 25/32/33 27/33/35 28/34/34
s 6
f 3/3/24 1/1/22 12/18/36
f 1/1/22 9/15/37 12/18/36
s 4
f 2/2/27 8/11/38 14/19/39
f 8/11/38 13/20/40 14/19/39
s 9
f 8/11/41 6/12/42 13/20/43
f 6/12/42 15/21/44 13/20/43
s 2
f 4/4/7 16/22/45 6/12/5
f 6/12/5 16/22/45 15/21/46
s 10
f 4/4/47 2/2/48 16/22/49
f 2/2/48 14/19/50 16/22/49
s 4
f 13/20/40 17/24/51 14/19/39
f 14/19/39 17/24/51 18/23/52
s 11
f 22/27/53 21/28/54 24/30/55
f 21/28/54 23/29/56 24/30/55
s 2
f 15/21/46 16/22/45 19/25/57
f 16/22/45 20/26/58 19/25/57
s 10
f 16/22/49 14/19/50 20/26/59
f 14/19/50 18/23/60 20/26/59
s 12
f 37/44/61 34/41/62 22/27/63
f 34/41/62 21/28/64 22/27/63
s 13
f 34/41/65 35/42/66 21/28/67
f 35/42/66 23/29/68 21/28/67
s 14
f 35/42/69 36/43/70 23/29/71
f 36/43/70 24/30/72 23/29/71
s 15
f 36/43/73 37/44/74 24/30/75
f 37/44/74 22/27/76 24/30/75
s 16
f 4/4/77 30/36/78 26/31/79
f 3/3/80 25/32/81 30/36/78
f 30/36/78 25/32/81 26/31/79
s 6
f 3/3/24 12/18/36 25/32/82
f 12/18/36 27/33/83 25/32/82
s 1
f 12/18/3 11/17/4 27/33/84
f 11/17/4 28/34/85 27/33/84
s 7
f 11/17/31 4/4/29 28/34/86
f 4/4/29 26/31/87 28/34/86
s 17
f 31/37/88 5/5/89 29/35/90
f 5/5/89 3/3/91 29/35/90
f 3/3/91 30/36/92 29/35/90
s 9
f 29/35/93 6/6/42 31/37/94
f 31/37/94 6/6/42 32/38/95
f 6/6/42 8/8/41 32/38/95
s 4
f 8/8/38 2/10/27 32/38/96
f 33/40/16 32/38/96 2/10/27
s 2
f 15/21/46 19/25/57 34/41/97
f 19/25/57 35/42/98 34/41/97
s 5
f 19/25/20 17/24/18 35/42/99
f 17/24/18 36/43/100 35/42/99
s 4
f 13/20/40 37/44/101 17/24/51
f 17/24/51 37/44/101 36/43/102
s 18
f 13/20/103 15/21/104 37/44/105
f 15/21/104 34/41/106 37/44/105
